<svg id="Capa_1" enable-background="new 0 0 512 512" height="512" viewBox="0 0 512 512" width="512" xmlns="http://www.w3.org/2000/svg"><g><g><path d="m368.868 368.475h15.223v63.459h-15.223z" fill="#d8e2f1"/></g><circle cx="376.479" cy="463.421" fill="#5e54ac" r="41.007"/><circle cx="376.479" cy="463.421" fill="#524798" r="12.815"/><path d="m492.971 440.867h-50.292c-3.92 0-7.489-2.257-9.169-5.799l-14.756-31.107h74.218c5.605 0 10.149 4.544 10.149 10.149v16.609c-.001 5.604-4.545 10.148-10.15 10.148z" fill="#5e54ac"/><path d="m435.602 403.96-21.972-46.32c-1.26-2.656-3.938-4.349-6.877-4.349h-37.885v15.223h33.072l16.814 35.446z" fill="#d8e2f1"/><g><path d="m95.869 29.069h-15.223v-.957c0-7.107-5.782-12.889-12.889-12.889h-36.215v-15.223h36.215c15.501 0 28.112 12.611 28.112 28.112z" fill="#d8e2f1"/></g><path d="m41.686 6.089v51.383c0 3.363-2.726 6.089-6.089 6.089h-20.628c-3.363 0-6.089-2.726-6.089-6.089v-51.383c0-3.363 2.726-6.089 6.089-6.089h20.627c3.364 0 6.09 2.726 6.09 6.089z" fill="#5e54ac"/><path d="m373.942 368.475h-293.304v-143.525h262.446c22.648 0 41.007 18.36 41.007 41.007v92.369c0 5.605-4.544 10.149-10.149 10.149z" fill="#df75a5"/><path d="m235.883 224.95h-155.245v88.927c16.496-21.631 42.527-35.618 71.768-35.618 49.745 0 90.216 40.471 90.216 90.216h75.863c-.001-61.165-33.241-114.705-82.602-143.525z" fill="#dd5790"/><path d="m142.148 224.95h-61.51v-196.835h11.512c21.737 0 39.697 16.961 40.94 38.663z" fill="#d8e2f1"/><path d="m133.091 66.778c-1.221-21.321-18.582-38.055-39.804-38.635 10.97 6.826 18.516 18.694 19.305 32.484l9.058 164.323h20.499z" fill="#b7c8ea"/><g><g><path d="m265.174 376.089h-82.011c-4.204 0-7.611-3.408-7.611-7.612s3.408-7.611 7.611-7.611h82.011c4.204 0 7.611 3.408 7.611 7.611.001 4.204-3.406 7.612-7.611 7.612z" fill="#d8e2f1"/></g><g><path d="m152.405 345.331c-4.204 0-7.611-3.408-7.611-7.612v-82.014c0-4.204 3.408-7.611 7.611-7.611 4.204 0 7.611 3.408 7.611 7.611v82.014c.001 4.204-3.407 7.612-7.611 7.612z" fill="#d8e2f1"/></g><g><path d="m152.405 488.856c-4.204 0-7.611-3.408-7.611-7.611v-82.015c0-4.204 3.408-7.612 7.611-7.612 4.204 0 7.611 3.408 7.611 7.612v82.014c.001 4.204-3.407 7.612-7.611 7.612z" fill="#d8e2f1"/></g><g><path d="m130.658 354.339c-1.948 0-3.896-.743-5.382-2.229l-57.993-57.993c-2.973-2.972-2.973-7.792 0-10.764 2.972-2.972 7.792-2.972 10.764 0l57.993 57.993c2.973 2.972 2.973 7.792 0 10.764-1.486 1.486-3.434 2.229-5.382 2.229z" fill="#d8e2f1"/></g><g><path d="m232.146 455.827c-1.948 0-3.896-.743-5.382-2.229l-57.993-57.993c-2.973-2.972-2.973-7.792 0-10.764 2.972-2.972 7.792-2.972 10.764 0l57.993 57.993c2.973 2.972 2.973 7.792 0 10.764-1.486 1.485-3.434 2.229-5.382 2.229z" fill="#d8e2f1"/></g><g><path d="m121.65 376.086h-82.015c-4.204 0-7.611-3.408-7.611-7.611s3.408-7.612 7.611-7.612h82.014c4.204 0 7.612 3.408 7.612 7.612s-3.408 7.611-7.611 7.611z" fill="#d8e2f1"/></g><g><path d="m72.665 455.827c-1.948 0-3.896-.743-5.382-2.229-2.973-2.972-2.973-7.792 0-10.764l57.993-57.993c2.972-2.972 7.792-2.972 10.764 0 2.973 2.972 2.973 7.792 0 10.764l-57.993 57.993c-1.486 1.485-3.434 2.229-5.382 2.229z" fill="#d8e2f1"/></g><g><path d="m174.153 354.339c-1.948 0-3.896-.743-5.382-2.229-2.973-2.972-2.973-7.792 0-10.764l57.993-57.993c2.972-2.972 7.792-2.972 10.764 0 2.973 2.972 2.973 7.792 0 10.764l-57.993 57.993c-1.486 1.486-3.434 2.229-5.382 2.229z" fill="#d8e2f1"/></g><path d="m152.405 224.95c-79.266 0-143.525 64.258-143.525 143.525s64.259 143.525 143.525 143.525 143.525-64.258 143.525-143.525-64.258-143.525-143.525-143.525zm0 256.295c-62.281 0-112.77-50.489-112.77-112.77s50.489-112.77 112.77-112.77 112.77 50.489 112.77 112.77-50.489 112.77-112.77 112.77z" fill="#5e54ac"/><path d="m239.975 254.763c18.69 24.233 29.814 54.6 29.814 87.569 0 13.476-1.862 26.516-5.334 38.882-5.859 52.099-47.21 93.45-99.309 99.309-12.366 3.472-25.406 5.334-38.882 5.334-32.97 0-63.337-11.124-87.569-29.814 26.243 34.03 67.413 55.957 113.71 55.957 79.267 0 143.525-64.258 143.525-143.525 0-46.297-21.927-87.467-55.955-113.712z" fill="#524798"/><circle cx="152.405" cy="368.475" fill="#d8e2f1" r="30.755"/><path d="m165.058 340.444c1.745 3.86 2.725 8.141 2.725 12.653 0 16.986-13.77 30.755-30.755 30.755-4.512 0-8.792-.98-12.653-2.725 4.825 10.672 15.557 18.103 28.031 18.103 16.986 0 30.755-13.77 30.755-30.755 0-12.474-7.431-23.205-18.103-28.031z" fill="#b7c8ea"/></g><path d="m293.88 192.144h-164.029v-12.302c0-11.324 9.18-20.504 20.504-20.504h123.022c11.324 0 20.504 9.18 20.504 20.504v12.302z" fill="#5e54ac"/><path d="m80.638 184.532h231.695c4.204 0 7.611 3.408 7.611 7.611v32.806h-15.223v-25.194h-224.08z" fill="#d8e2f1"/></g></svg>